<?xml version="1.0" encoding="utf-8"?>
<!-- Generator: Adobe Illustrator 16.2.1, SVG Export Plug-In . SVG Version: 6.00 Build 0)  -->
<!DOCTYPE svg PUBLIC "-//W3C//DTD SVG 1.1//EN" "http://www.w3.org/Graphics/SVG/1.1/DTD/svg11.dtd">
<svg version="1.1" id="Layer_1" xmlns="http://www.w3.org/2000/svg" xmlns:xlink="http://www.w3.org/1999/xlink" x="0px" y="0px"
	 width="300px" height="200.628px" viewBox="156.125 295.436 300 200.628" enable-background="new 156.125 295.436 300 200.628"
	 xml:space="preserve">
<g>
	<g>
		<g>
			<polygon fill="#6E92A3" points="269.836,411.254 282.848,369.485 255.69,348.603 185.403,417.488 260.932,417.488 
				269.777,411.445 			"/>
			<polygon fill="#6E92A3" points="356.955,348.604 329.802,369.485 342.852,411.434 351.715,417.488 427.242,417.488 			"/>
		</g>
		<g>
			<polygon fill="#0DB14B" points="344.29,324.874 315.623,324.804 306.323,297.291 297.015,324.804 268.356,324.874 
				291.273,342.498 282.855,369.513 306.323,353.438 329.782,369.513 321.378,342.498 			"/>
			<polygon fill="#0DB14B" points="306.42,386.548 306.323,386.482 260.932,417.488 351.715,417.488 			"/>
		</g>
	</g>
	<g>
		<path fill="#6E92A3" d="M157.267,451.521v-4.385h7.404v-9.508l5.484-2.377v11.883h9.322v4.387h-9.324v29.611
			c0,6.123,0.639,7.588,5.026,7.588c1.828,0,3.106-0.092,4.296-0.275v4.754c-1.646,0.184-3.474,0.273-5.211,0.273
			c-7.404,0-9.597-3.291-9.597-8.959V451.52h-7.401V451.521z"/>
		<path fill="#6E92A3" d="M191.086,471.357v3.562c0,6.398,1.735,14.898,10.419,14.898c6.857,0,10.236-4.385,10.146-10.6h5.759
			c-0.641,11.15-6.671,14.99-15.903,14.99c-7.951,0-15.903-3.199-15.903-17.184v-11.334c0-13.346,5.576-19.469,15.903-19.469
			c15.903,0,15.903,11.424,15.903,25.135H191.086z M211.924,466.973c0-10.238-1.644-16.365-10.419-16.365
			c-8.773,0-10.419,6.127-10.419,16.365H211.924z"/>
		<path fill="#6E92A3" d="M247.939,460.389c0.275-5.76-1.83-9.781-8.134-9.781c-3.383,0-6.215,1.922-7.404,5.305
			c-0.732,2.102-1.279,8.408-1.279,14.531c0,8.314,0,19.375,8.5,19.375c7.221,0,8.134-4.568,8.407-10.145h5.484
			c0.457,12.43-8.316,14.535-12.612,14.535c-15.629,0-15.629-12.342-15.629-23.766c0-4.57,0.182-11.791,1.37-15.262
			c2.378-6.584,7.587-8.959,13.896-8.959c7.95,0,13.343,4.477,12.888,14.166H247.939L247.939,460.389z"/>
		<path fill="#6E92A3" d="M262.933,493.293v-65.99h5.483v25.502h0.184c2.65-3.838,6.217-6.582,11.151-6.582
			c11.424,0,12.613,8.5,12.613,14.531v32.541h-5.483v-32.266c0-5.391-2.104-10.42-8.501-10.42c-4.938,0-9.964,3.383-9.964,13.711
			v28.975h-5.483V493.293z"/>
		<path fill="#6E92A3" d="M315.766,494.209c-9.962,0-13.893-4.846-13.803-14.627h5.575c0,6.307,1.464,10.514,8.504,10.514
			c5.298,0,7.861-3.018,7.861-8.137c0-12.062-20.75-8.955-20.75-24.221c0-8.498,5.852-11.514,13.893-11.514
			c9.143,0,12.066,6.309,12.066,13.344h-5.392c-0.275-5.85-1.831-8.959-8.043-8.959c-3.932,0-7.039,2.561-7.039,6.674
			c0,11.516,20.75,8.41,20.75,23.855C329.385,489.818,324.355,494.209,315.766,494.209z"/>
		<path fill="#6E92A3" d="M334.965,451.521v-4.385h7.403v-9.508l5.481-2.377v11.883h9.322v4.387h-9.322v29.611
			c0,6.123,0.642,7.588,5.03,7.588c1.826,0,3.105-0.092,4.292-0.275v4.754c-1.646,0.184-3.475,0.273-5.208,0.273
			c-7.405,0-9.599-3.291-9.599-8.959V451.52h-7.4V451.521z"/>
		<path fill="#6E92A3" d="M388.343,487.625h-0.185c-2.923,4.387-7.402,6.584-13.069,6.584c-8.228,0-12.705-5.576-12.705-13.619
			c0-16.178,16.269-14.533,25.591-15.262v-3.84c0-6.766-2.009-10.879-9.322-10.879c-5.027,0-9.049,2.469-9.049,7.955h-5.852
			c0.459-8.863,7.315-12.34,15.357-12.34c4.663,0,14.349,0.459,14.349,12.246v23.219c0,3.287,0,6.215,0.551,11.607h-5.669v-5.672
			H388.343z M387.975,469.711c-7.862,0.273-19.739-0.639-19.739,10.602c0,5.213,2.646,9.506,8.316,9.506
			c6.307,0,11.423-5.668,11.423-11.699V469.711z"/>
		<path fill="#6E92A3" d="M410.007,453.352h0.184c2.283-4.385,7.129-7.129,12.705-7.129v5.576
			c-7.77-0.641-12.889,4.023-12.889,11.791v29.705h-5.484v-46.156h5.484V453.352z"/>
		<path fill="#6E92A3" d="M441.359,494.209c-9.961,0-13.892-4.846-13.8-14.627h5.576c0,6.307,1.462,10.514,8.5,10.514
			c5.3,0,7.861-3.018,7.861-8.137c0-12.062-20.749-8.955-20.749-24.221c0-8.498,5.852-11.514,13.892-11.514
			c9.143,0,12.066,6.309,12.066,13.344h-5.393c-0.273-5.85-1.829-8.959-8.042-8.959c-3.93,0-7.037,2.561-7.037,6.674
			c0,11.516,20.749,8.41,20.749,23.855C454.979,489.818,449.951,494.209,441.359,494.209z"/>
	</g>
</g>
</svg>
